<svg width="59" height="60" viewBox="0 0 59 60" fill="none" xmlns="http://www.w3.org/2000/svg">
<g clip-path="url(#clip0_107370_17)">
<path d="M34.1357 59.003C32.6026 60.9327 29.4935 59.8767 29.456 57.4109L28.9146 21.3616H53.1547C57.5449 21.3616 59.9947 26.4326 57.2662 29.8687L34.1357 59.003Z" fill="url(#paint0_linear_107370_17)"/>
<path d="M34.1357 59.003C32.6026 60.9327 29.4935 59.8767 29.456 57.4109L28.9146 21.3616H53.1547C57.5449 21.3616 59.9947 26.4326 57.2662 29.8687L34.1357 59.003Z" fill="url(#paint1_linear_107370_17)" fill-opacity="0.2"/>
<path d="M24.2773 0.997011C25.8104 -0.932767 28.9195 0.12325 28.957 2.58908L29.1929 38.6384H5.25827C0.868028 38.6384 -1.58172 33.5674 1.14677 30.1313L24.2773 0.997011Z" fill="white"/>
</g>
<defs>
<linearGradient id="paint0_linear_107370_17" x1="26.9741" y1="34.0016" x2="48.5179" y2="43.034" gradientUnits="userSpaceOnUse">
<stop stop-color="#CCCECE"/>
<stop offset="1" stop-color="white"/>
</linearGradient>
<linearGradient id="paint1_linear_107370_17" x1="28.0033" y1="11.6912" x2="37.8291" y2="30.1849" gradientUnits="userSpaceOnUse">
<stop/>
<stop offset="1" stop-opacity="0"/>
</linearGradient>
<clipPath id="clip0_107370_17">
<rect width="58.4187" height="60" fill="white"/>
</clipPath>
</defs>
</svg>
